<svg width="50" height="50" viewBox="0 0 50 50" fill="none" xmlns="http://www.w3.org/2000/svg">
<rect width="50" height="50" fill="#E6E6E6"/>
<path d="M9.62031 10H7.77777V17.6233H9.62031V16.8161H8.62071V10.8072H9.62031V10Z" fill="#4A4A4A"/>
<path d="M12.2025 11.9283C11.8892 11.9283 11.658 12.145 11.658 12.4514C11.658 12.7578 11.8892 12.9821 12.2025 12.9821C12.5158 12.9821 12.7545 12.7578 12.7545 12.4514C12.7545 12.145 12.5158 11.9283 12.2025 11.9283ZM12.2025 14.7907C11.8892 14.7907 11.658 15.0075 11.658 15.3139C11.658 15.6203 11.8892 15.8445 12.2025 15.8445C12.5158 15.8445 12.7545 15.6203 12.7545 15.3139C12.7545 15.0075 12.5158 14.7907 12.2025 14.7907Z" fill="#4A4A4A"/>
<path d="M17.0406 11.6442V12.3468C16.7422 11.8759 16.2499 11.5546 15.6009 11.5546C14.5267 11.5546 13.7136 12.4439 13.7136 13.6996C13.7136 14.9552 14.5118 15.8445 15.6084 15.8445C16.2499 15.8445 16.7422 15.5381 17.0406 15.0673V15.7549H17.8836V11.6442H17.0406ZM15.7874 15.0374C15.0787 15.0374 14.564 14.4918 14.564 13.6996C14.564 12.9148 15.0713 12.3617 15.7874 12.3617C16.5035 12.3617 17.0481 12.9148 17.0481 13.6996C17.0481 14.4918 16.5035 15.0374 15.7874 15.0374Z" fill="#4A4A4A"/>
<path d="M21.0752 11.5546C20.4262 11.5546 19.9562 11.8834 19.7101 12.4589V11.6442H18.8671V15.7549H19.7101V13.8714C19.7101 12.855 20.2994 12.4215 21.0677 12.4215C21.1796 12.4215 21.2468 12.429 21.3214 12.4365V11.577C21.2617 11.562 21.1796 11.5546 21.0752 11.5546Z" fill="#4A4A4A"/>
<path d="M25.0487 14.858C24.7279 14.9701 24.437 15.0598 24.1759 15.0598C23.6463 15.0598 23.3703 14.7309 23.3703 14.133V12.4365H25.0561V11.6442H23.3703V10.5232L22.5273 10.71V11.6442H21.7664V12.4365H22.5273V14.1779C22.5273 15.3139 23.1838 15.8445 24.0267 15.8445C24.4967 15.8445 24.9741 15.6801 25.1979 15.5456L25.0487 14.858Z" fill="#4A4A4A"/>
<path d="M12.3491 22.5162C12.0358 22.5162 11.8045 22.7329 11.8045 23.0394C11.8045 23.3458 12.0358 23.57 12.3491 23.57C12.6624 23.57 12.9011 23.3458 12.9011 23.0394C12.9011 22.7329 12.6624 22.5162 12.3491 22.5162ZM12.3491 25.3787C12.0358 25.3787 11.8045 25.5954 11.8045 25.9018C11.8045 26.2083 12.0358 26.4325 12.3491 26.4325C12.6624 26.4325 12.9011 26.2083 12.9011 25.9018C12.9011 25.5954 12.6624 25.3787 12.3491 25.3787Z" fill="#4A4A4A"/>
<path d="M16.9634 25.4459C16.6426 25.558 16.3517 25.6477 16.0906 25.6477C15.561 25.6477 15.285 25.3189 15.285 24.721V23.0244H16.9709V22.2322H15.285V21.1111L14.442 21.298V22.2322H13.6812V23.0244H14.442V24.7658C14.442 25.9018 15.0985 26.4325 15.9414 26.4325C16.4114 26.4325 16.8888 26.2681 17.1126 26.1335L16.9634 25.4459Z" fill="#4A4A4A"/>
<path d="M19.6721 22.1425C18.4338 22.1425 17.5536 23.0543 17.5536 24.295C17.5536 25.5356 18.4413 26.4325 19.6871 26.4325C20.5598 26.4325 21.3431 25.999 21.6639 25.0797H20.7911C20.5971 25.4833 20.1869 25.6926 19.6945 25.6926C19.0082 25.6926 18.4786 25.274 18.4115 24.5192H21.7459C21.828 23.1664 20.9925 22.1425 19.6721 22.1425ZM19.6721 22.8749C20.2913 22.8749 20.7165 23.2711 20.8433 23.8316H18.4562C18.5979 23.2785 19.0306 22.8749 19.6721 22.8749Z" fill="#4A4A4A"/>
<path d="M24.5604 26.4325C25.5227 26.4325 26.388 25.857 26.582 24.8406H25.7092C25.5526 25.3488 25.0975 25.6477 24.5604 25.6477C23.8219 25.6477 23.2848 25.0872 23.2848 24.2875C23.2848 23.4953 23.807 22.9273 24.5679 22.9273C25.0975 22.9273 25.5526 23.2113 25.7092 23.727H26.582C26.3955 22.7329 25.5376 22.1425 24.5679 22.1425C23.3445 22.1425 22.4344 23.0618 22.4344 24.2875C22.4344 25.5132 23.3445 26.4325 24.5604 26.4325Z" fill="#4A4A4A"/>
<path d="M29.6076 22.1425C28.9736 22.1425 28.526 22.4265 28.2351 22.9048V20.5879H27.3921V26.3428H28.2351V24.2128C28.2351 23.4205 28.623 22.9497 29.3391 22.9497C29.9582 22.9497 30.2417 23.286 30.2417 23.9213V26.3428H31.0847V23.7494C31.0847 22.7479 30.5252 22.1425 29.6076 22.1425Z" fill="#4A4A4A"/>
<path d="M12.3491 33.1041C12.0358 33.1041 11.8045 33.3209 11.8045 33.6273C11.8045 33.9337 12.0358 34.1579 12.3491 34.1579C12.6624 34.1579 12.9011 33.9337 12.9011 33.6273C12.9011 33.3209 12.6624 33.1041 12.3491 33.1041ZM12.3491 35.9666C12.0358 35.9666 11.8045 36.1834 11.8045 36.4898C11.8045 36.7962 12.0358 37.0204 12.3491 37.0204C12.6624 37.0204 12.9011 36.7962 12.9011 36.4898C12.9011 36.1834 12.6624 35.9666 12.3491 35.9666Z" fill="#4A4A4A"/>
<path d="M17.2394 31.1759V33.5227C16.9336 33.0518 16.4412 32.7304 15.7922 32.7304C14.718 32.7304 13.9049 33.6198 13.9049 34.8754C13.9049 36.131 14.7031 37.0204 15.7997 37.0204C16.4412 37.0204 16.9336 36.7065 17.2394 36.2431V36.9307H18.0824V31.1759H17.2394ZM15.9787 36.2133C15.2701 36.2133 14.7553 35.6677 14.7553 34.8754C14.7553 34.0907 15.2626 33.5376 15.9787 33.5376C16.6949 33.5376 17.2394 34.0907 17.2394 34.8754C17.2394 35.6677 16.6949 36.2133 15.9787 36.2133Z" fill="#4A4A4A"/>
<path d="M21.0417 32.7304C19.8034 32.7304 18.9231 33.6422 18.9231 34.8829C18.9231 36.1236 19.8108 37.0204 21.0566 37.0204C21.9294 37.0204 22.7126 36.5869 23.0334 35.6677H22.1606C21.9667 36.0712 21.5564 36.2805 21.0641 36.2805C20.3778 36.2805 19.8481 35.862 19.781 35.1071H23.1155C23.1975 33.7544 22.362 32.7304 21.0417 32.7304ZM21.0417 33.4629C21.6608 33.4629 22.086 33.859 22.2129 34.4195H19.8258C19.9675 33.8665 20.4002 33.4629 21.0417 33.4629Z" fill="#4A4A4A"/>
<path d="M25.7509 37.0204C26.7207 37.0204 27.5114 36.5869 27.5114 35.705C27.5114 34.9053 26.8699 34.711 25.7584 34.4494C25.0423 34.2775 24.7886 34.2103 24.7886 33.9487C24.7886 33.6647 25.1094 33.4778 25.654 33.4778C26.1761 33.4778 26.4894 33.6423 26.6088 33.9786H27.4592C27.31 33.2312 26.7207 32.7304 25.6689 32.7304C24.6395 32.7304 23.9382 33.2088 23.9382 34.0384C23.9382 34.726 24.4231 34.9576 25.5719 35.2417C26.2582 35.4061 26.6461 35.4584 26.6461 35.8022C26.6461 36.1086 26.3104 36.273 25.7659 36.273C25.0572 36.273 24.7215 36.0638 24.5947 35.6079H23.7368C23.8935 36.4973 24.6693 37.0204 25.7509 37.0204Z" fill="#4A4A4A"/>
<path d="M28.7123 30.9666C28.4065 30.9666 28.1678 31.1834 28.1678 31.4823C28.1678 31.7887 28.4065 32.013 28.7123 32.013C29.0331 32.013 29.2643 31.7887 29.2643 31.4823C29.2643 31.1834 29.0331 30.9666 28.7123 30.9666ZM28.2946 36.9307H29.1375V32.8201H28.2946V36.9307Z" fill="#4A4A4A"/>
<path d="M33.3085 32.8201V33.5227C33.0101 33.0518 32.5103 32.7304 31.8763 32.7304C30.7946 32.7304 29.9815 33.6198 29.9815 34.853C29.9815 36.0862 30.7797 36.9756 31.8763 36.9756C32.5103 36.9756 33.0027 36.6617 33.3085 36.2058V36.9083C33.3085 37.708 32.8982 38.134 32.1448 38.134C31.5928 38.134 31.1377 37.8874 30.996 37.3567H30.1232C30.3023 38.3807 31.19 38.8889 32.1672 38.8889C33.3831 38.8889 34.1514 38.1041 34.1514 36.8784V32.8201H33.3085ZM32.0553 36.1684C31.3466 36.1684 30.8319 35.6228 30.8319 34.853C30.8319 34.0907 31.3392 33.5376 32.0553 33.5376C32.7714 33.5376 33.316 34.0907 33.316 34.853C33.316 35.6228 32.7714 36.1684 32.0553 36.1684Z" fill="#4A4A4A"/>
<path d="M37.3505 32.7304C36.709 32.7304 36.2689 33.0219 35.978 33.5002V32.8201H35.135V36.9307H35.978V34.8007C35.978 34.0085 36.3659 33.5376 37.0894 33.5376C37.7086 33.5376 37.9846 33.8739 37.9846 34.5092V36.9307H38.8275V34.3373C38.8275 33.3358 38.2755 32.7304 37.3505 32.7304Z" fill="#4A4A4A"/>
<path d="M40.3797 31.1759V31.9831H41.3718V37.992H40.3797V38.7992H42.2222V31.1759H40.3797Z" fill="#4A4A4A"/>
</svg>
