<svg width="113" height="113" viewBox="0 0 113 113" fill="none" xmlns="http://www.w3.org/2000/svg">
<rect width="113" height="113" fill="#E6E6E6"/>
<path d="M31.964 33H29V45.24H31.964V43.944H30.356V34.296H31.964V33Z" fill="#4A4A4A"/>
<path d="M36.1179 36.096C35.6139 36.096 35.2419 36.444 35.2419 36.936C35.2419 37.428 35.6139 37.788 36.1179 37.788C36.6219 37.788 37.0059 37.428 37.0059 36.936C37.0059 36.444 36.6219 36.096 36.1179 36.096ZM36.1179 40.692C35.6139 40.692 35.2419 41.04 35.2419 41.532C35.2419 42.024 35.6139 42.384 36.1179 42.384C36.6219 42.384 37.0059 42.024 37.0059 41.532C37.0059 41.04 36.6219 40.692 36.1179 40.692Z" fill="#4A4A4A"/>
<path d="M43.9007 35.64V36.768C43.4207 36.012 42.6287 35.496 41.5847 35.496C39.8567 35.496 38.5487 36.924 38.5487 38.94C38.5487 40.956 39.8327 42.384 41.5967 42.384C42.6287 42.384 43.4207 41.892 43.9007 41.136V42.24H45.2567V35.64H43.9007ZM41.8847 41.088C40.7447 41.088 39.9167 40.212 39.9167 38.94C39.9167 37.68 40.7327 36.792 41.8847 36.792C43.0367 36.792 43.9127 37.68 43.9127 38.94C43.9127 40.212 43.0367 41.088 41.8847 41.088Z" fill="#4A4A4A"/>
<path d="M50.3909 35.496C49.3469 35.496 48.5909 36.024 48.1949 36.948V35.64H46.8389V42.24H48.1949V39.216C48.1949 37.584 49.1429 36.888 50.3789 36.888C50.5589 36.888 50.6669 36.9 50.7869 36.912V35.532C50.6909 35.508 50.5589 35.496 50.3909 35.496Z" fill="#4A4A4A"/>
<path d="M56.7829 40.8C56.2669 40.98 55.7989 41.124 55.3789 41.124C54.5269 41.124 54.0829 40.596 54.0829 39.636V36.912H56.7949V35.64H54.0829V33.84L52.7269 34.14V35.64H51.5029V36.912H52.7269V39.708C52.7269 41.532 53.7829 42.384 55.1389 42.384C55.8949 42.384 56.6629 42.12 57.0229 41.904L56.7829 40.8Z" fill="#4A4A4A"/>
<path d="M36.3537 53.096C35.8497 53.096 35.4777 53.444 35.4777 53.936C35.4777 54.428 35.8497 54.788 36.3537 54.788C36.8577 54.788 37.2417 54.428 37.2417 53.936C37.2417 53.444 36.8577 53.096 36.3537 53.096ZM36.3537 57.692C35.8497 57.692 35.4777 58.04 35.4777 58.532C35.4777 59.024 35.8497 59.384 36.3537 59.384C36.8577 59.384 37.2417 59.024 37.2417 58.532C37.2417 58.04 36.8577 57.692 36.3537 57.692Z" fill="#4A4A4A"/>
<path d="M43.7765 57.8C43.2605 57.98 42.7925 58.124 42.3725 58.124C41.5205 58.124 41.0765 57.596 41.0765 56.636V53.912H43.7885V52.64H41.0765V50.84L39.7205 51.14V52.64H38.4965V53.912H39.7205V56.708C39.7205 58.532 40.7765 59.384 42.1325 59.384C42.8885 59.384 43.6565 59.12 44.0165 58.904L43.7765 57.8Z" fill="#4A4A4A"/>
<path d="M48.1339 52.496C46.1419 52.496 44.7259 53.96 44.7259 55.952C44.7259 57.944 46.1539 59.384 48.1579 59.384C49.5619 59.384 50.8219 58.688 51.3379 57.212H49.9339C49.6219 57.86 48.9619 58.196 48.1699 58.196C47.0659 58.196 46.2139 57.524 46.1059 56.312H51.4699C51.6019 54.14 50.2579 52.496 48.1339 52.496ZM48.1339 53.672C49.1299 53.672 49.8139 54.308 50.0179 55.208H46.1779C46.4059 54.32 47.1019 53.672 48.1339 53.672Z" fill="#4A4A4A"/>
<path d="M55.9975 59.384C57.5455 59.384 58.9375 58.46 59.2495 56.828H57.8455C57.5935 57.644 56.8615 58.124 55.9975 58.124C54.8095 58.124 53.9455 57.224 53.9455 55.94C53.9455 54.668 54.7855 53.756 56.0095 53.756C56.8615 53.756 57.5935 54.212 57.8455 55.04H59.2495C58.9495 53.444 57.5695 52.496 56.0095 52.496C54.0415 52.496 52.5775 53.972 52.5775 55.94C52.5775 57.908 54.0415 59.384 55.9975 59.384Z" fill="#4A4A4A"/>
<path d="M64.1167 52.496C63.0967 52.496 62.3767 52.952 61.9087 53.72V50H60.5527V59.24H61.9087V55.82C61.9087 54.548 62.5327 53.792 63.6847 53.792C64.6807 53.792 65.1367 54.332 65.1367 55.352V59.24H66.4927V55.076C66.4927 53.468 65.5927 52.496 64.1167 52.496Z" fill="#4A4A4A"/>
<path d="M36.3537 70.096C35.8497 70.096 35.4777 70.444 35.4777 70.936C35.4777 71.428 35.8497 71.788 36.3537 71.788C36.8577 71.788 37.2417 71.428 37.2417 70.936C37.2417 70.444 36.8577 70.096 36.3537 70.096ZM36.3537 74.692C35.8497 74.692 35.4777 75.04 35.4777 75.532C35.4777 76.024 35.8497 76.384 36.3537 76.384C36.8577 76.384 37.2417 76.024 37.2417 75.532C37.2417 75.04 36.8577 74.692 36.3537 74.692Z" fill="#4A4A4A"/>
<path d="M44.2205 67V70.768C43.7285 70.012 42.9365 69.496 41.8925 69.496C40.1645 69.496 38.8565 70.924 38.8565 72.94C38.8565 74.956 40.1405 76.384 41.9045 76.384C42.9365 76.384 43.7285 75.88 44.2205 75.136V76.24H45.5765V67H44.2205ZM42.1925 75.088C41.0525 75.088 40.2245 74.212 40.2245 72.94C40.2245 71.68 41.0405 70.792 42.1925 70.792C43.3445 70.792 44.2205 71.68 44.2205 72.94C44.2205 74.212 43.3445 75.088 42.1925 75.088Z" fill="#4A4A4A"/>
<path d="M50.337 69.496C48.345 69.496 46.929 70.96 46.929 72.952C46.929 74.944 48.357 76.384 50.361 76.384C51.765 76.384 53.025 75.688 53.541 74.212H52.137C51.825 74.86 51.165 75.196 50.373 75.196C49.269 75.196 48.417 74.524 48.309 73.312H53.673C53.805 71.14 52.461 69.496 50.337 69.496ZM50.337 70.672C51.333 70.672 52.017 71.308 52.221 72.208H48.381C48.609 71.32 49.305 70.672 50.337 70.672Z" fill="#4A4A4A"/>
<path d="M57.9126 76.384C59.4726 76.384 60.7446 75.688 60.7446 74.272C60.7446 72.988 59.7126 72.676 57.9246 72.256C56.7726 71.98 56.3646 71.872 56.3646 71.452C56.3646 70.996 56.8806 70.696 57.7566 70.696C58.5966 70.696 59.1006 70.96 59.2926 71.5H60.6606C60.4206 70.3 59.4726 69.496 57.7806 69.496C56.1246 69.496 54.9966 70.264 54.9966 71.596C54.9966 72.7 55.7766 73.072 57.6246 73.528C58.7286 73.792 59.3526 73.876 59.3526 74.428C59.3526 74.92 58.8126 75.184 57.9366 75.184C56.7966 75.184 56.2566 74.848 56.0526 74.116H54.6726C54.9246 75.544 56.1726 76.384 57.9126 76.384Z" fill="#4A4A4A"/>
<path d="M62.6764 66.664C62.1844 66.664 61.8004 67.012 61.8004 67.492C61.8004 67.984 62.1844 68.344 62.6764 68.344C63.1924 68.344 63.5644 67.984 63.5644 67.492C63.5644 67.012 63.1924 66.664 62.6764 66.664ZM62.0044 76.24H63.3604V69.64H62.0044V76.24Z" fill="#4A4A4A"/>
<path d="M70.0701 69.64V70.768C69.5901 70.012 68.7861 69.496 67.7661 69.496C66.0261 69.496 64.7181 70.924 64.7181 72.904C64.7181 74.884 66.0021 76.312 67.7661 76.312C68.7861 76.312 69.5781 75.808 70.0701 75.076V76.204C70.0701 77.488 69.4101 78.172 68.1981 78.172C67.3101 78.172 66.5781 77.776 66.3501 76.924H64.9461C65.2341 78.568 66.6621 79.384 68.2341 79.384C70.1901 79.384 71.4261 78.124 71.4261 76.156V69.64H70.0701ZM68.0541 75.016C66.9141 75.016 66.0861 74.14 66.0861 72.904C66.0861 71.68 66.9021 70.792 68.0541 70.792C69.2061 70.792 70.0821 71.68 70.0821 72.904C70.0821 74.14 69.2061 75.016 68.0541 75.016Z" fill="#4A4A4A"/>
<path d="M76.5723 69.496C75.5403 69.496 74.8323 69.964 74.3643 70.732V69.64H73.0083V76.24H74.3643V72.82C74.3643 71.548 74.9883 70.792 76.1523 70.792C77.1483 70.792 77.5923 71.332 77.5923 72.352V76.24H78.9483V72.076C78.9483 70.468 78.0603 69.496 76.5723 69.496Z" fill="#4A4A4A"/>
<path d="M81.4452 67V68.296H83.0412V77.944H81.4452V79.24H84.4092V67H81.4452Z" fill="#4A4A4A"/>
</svg>
