<?xml version="1.0" encoding="utf-8"?>
<!-- Generator: Adobe Illustrator 27.3.1, SVG Export Plug-In . SVG Version: 6.00 Build 0)  -->
<svg version="1.1" id="Layer_1" xmlns="http://www.w3.org/2000/svg" xmlns:xlink="http://www.w3.org/1999/xlink" x="0px" y="0px"
	 viewBox="0 0 24.64 22.77" style="enable-background:new 0 0 24.64 22.77;" xml:space="preserve">
<style type="text/css">
	.st0{fill:#1E1E24;}
</style>
<path class="st0" d="M19.06,2.39H5.56c-1.23,0-2.25,1-2.25,2.25v13.49c0,1.25,1.01,2.26,2.25,2.26h13.5c1.24,0,2.25-1,2.25-2.26
	V4.64C21.32,3.39,20.3,2.39,19.06,2.39z M12.31,9.14c2.07,0,2.25,2.24,2.25,2.24s0.07,2.25-2.25,2.25c-2.32,0-2.25-2.25-2.25-2.25
	S10.25,9.14,12.31,9.14z M19.06,17.01c0,0.63-0.5,1.12-1.13,1.12H6.69c-0.63,0-1.13-0.49-1.13-1.12v-5.63c0-0.62,0.5-1.12,1.13-1.12
	h1.28c-0.1,0.36-0.16,0.74-0.16,1.12c0,2.49,2.01,4.5,4.5,4.5c2.49,0,4.49-2.01,4.49-4.5c0-0.39-0.05-0.77-0.15-1.12h1.28
	c0.63,0,1.13,0.51,1.13,1.12V17.01z M19.06,6.88c0,0.62-0.5,1.12-1.13,1.12h-1.13c-0.61,0-1.12-0.5-1.12-1.12V5.75
	c0-0.61,0.51-1.11,1.12-1.11h1.13c0.63,0,1.13,0.5,1.13,1.11V6.88z"/>
</svg>
