<?xml version="1.0" encoding="utf-8"?>
<!-- Generator: Adobe Illustrator 27.3.1, SVG Export Plug-In . SVG Version: 6.00 Build 0)  -->
<svg version="1.1" id="Layer_1" xmlns="http://www.w3.org/2000/svg" xmlns:xlink="http://www.w3.org/1999/xlink" x="0px" y="0px"
	 viewBox="0 0 24.64 22.77" style="enable-background:new 0 0 24.64 22.77;" xml:space="preserve">
<style type="text/css">
	.st0{fill-rule:evenodd;clip-rule:evenodd;fill:#1E1E24;}
</style>
<path class="st0" d="M19.6,2.39H5.04c-0.96,0-1.72,0.77-1.72,1.71v14.58c0,0.95,0.76,1.71,1.72,1.71H19.6
	c0.95,0,1.72-0.77,1.72-1.71V4.09C21.32,3.15,20.55,2.39,19.6,2.39z M7.9,5.81c0.78,0,1.26,0.57,1.27,1.31
	c0,0.72-0.49,1.31-1.29,1.31H7.88c-0.77,0-1.26-0.58-1.26-1.31C6.61,6.38,7.12,5.81,7.9,5.81z M9.31,16.97H6.74V9.23h2.57V16.97z
	 M18.74,16.97H16.2v-4.04c0-1.03-0.29-1.72-1.21-1.72c-0.7,0-1.11,0.47-1.3,0.91c-0.06,0.17-0.08,0.39-0.08,0.62v4.22h-2.62
	c0,0,0.03-7.07,0-7.77h2.62v1.06c0.35-0.52,0.94-1.24,2.28-1.24c1.67,0,2.84,1.29,2.84,3.63V16.97z M13.62,10.3v-0.04
	c-0.01,0.01-0.02,0.03-0.03,0.04H13.62z"/>
</svg>
